<?xml version="1.0" encoding="UTF-8" standalone="no"?>
<!DOCTYPE svg PUBLIC "-//W3C//DTD SVG 1.1//EN"
 "http://www.w3.org/Graphics/SVG/1.1/DTD/svg11.dtd">
<!-- Generated by graphviz version 10.0.1 (0)
 -->
<!-- Pages: 1 -->
<svg width="1059pt" height="620pt"
 viewBox="0.00 0.00 1059.00 620.00" xmlns="http://www.w3.org/2000/svg" xmlns:xlink="http://www.w3.org/1999/xlink">
<g id="graph0" class="graph" transform="scale(1 1) rotate(0) translate(4 616)">
<!-- riscv64_toolchains -->
<g id="node1" class="node">
<title>riscv64_toolchains</title>
<polygon fill="none" stroke="black" points="622.25,-612 474.25,-612 474.25,-576 622.25,-576 622.25,-612"/>
<text text-anchor="middle" x="548.25" y="-589.33" font-family="Times,serif" font-size="14.00">riscv64_toolchains</text>
</g>
<!-- spec2006 -->
<g id="node3" class="node">
<title>spec2006</title>
<polygon fill="none" stroke="black" points="109.38,-540 25.12,-540 25.12,-504 109.38,-504 109.38,-540"/>
<text text-anchor="middle" x="67.25" y="-517.33" font-family="Times,serif" font-size="14.00">spec2006</text>
</g>
<!-- riscv64_toolchains&#45;&gt;spec2006 -->
<g id="edge1" class="edge">
<title>riscv64_toolchains&#45;&gt;spec2006</title>
<path fill="none" stroke="black" d="M474.06,-588.36C390.18,-582.11 249.57,-568.6 120.87,-540.34"/>
<polygon fill="black" stroke="black" points="121.65,-536.93 111.12,-538.17 120.12,-543.76 121.65,-536.93"/>
</g>
<!-- before_workload -->
<g id="node4" class="node">
<title>before_workload</title>
<polygon fill="none" stroke="black" points="554.12,-540 420.38,-540 420.38,-504 554.12,-504 554.12,-540"/>
<text text-anchor="middle" x="487.25" y="-517.33" font-family="Times,serif" font-size="14.00">before_workload</text>
</g>
<!-- riscv64_toolchains&#45;&gt;before_workload -->
<g id="edge3" class="edge">
<title>riscv64_toolchains&#45;&gt;before_workload</title>
<path fill="none" stroke="black" d="M533.17,-575.7C526.08,-567.56 517.48,-557.69 509.65,-548.7"/>
<polygon fill="black" stroke="black" points="512.36,-546.49 503.15,-541.25 507.08,-551.08 512.36,-546.49"/>
</g>
<!-- busybox -->
<g id="node5" class="node">
<title>busybox</title>
<polygon fill="none" stroke="black" points="647.88,-540 572.62,-540 572.62,-504 647.88,-504 647.88,-540"/>
<text text-anchor="middle" x="610.25" y="-517.33" font-family="Times,serif" font-size="14.00">busybox</text>
</g>
<!-- riscv64_toolchains&#45;&gt;busybox -->
<g id="edge4" class="edge">
<title>riscv64_toolchains&#45;&gt;busybox</title>
<path fill="none" stroke="black" d="M563.58,-575.7C570.78,-567.56 579.53,-557.69 587.49,-548.7"/>
<polygon fill="black" stroke="black" points="590.09,-551.04 594.1,-541.24 584.85,-546.4 590.09,-551.04"/>
</g>
<!-- qemu_trap -->
<g id="node6" class="node">
<title>qemu_trap</title>
<polygon fill="none" stroke="black" points="219.5,-540 127,-540 127,-504 219.5,-504 219.5,-540"/>
<text text-anchor="middle" x="173.25" y="-517.33" font-family="Times,serif" font-size="14.00">qemu_trap</text>
</g>
<!-- riscv64_toolchains&#45;&gt;qemu_trap -->
<g id="edge5" class="edge">
<title>riscv64_toolchains&#45;&gt;qemu_trap</title>
<path fill="none" stroke="black" d="M473.9,-583.44C411.51,-574.78 319.9,-560.59 230.99,-540.23"/>
<polygon fill="black" stroke="black" points="231.88,-536.85 221.35,-537.99 230.3,-543.66 231.88,-536.85"/>
</g>
<!-- nemu_trap -->
<g id="node7" class="node">
<title>nemu_trap</title>
<polygon fill="none" stroke="black" points="330.5,-540 238,-540 238,-504 330.5,-504 330.5,-540"/>
<text text-anchor="middle" x="284.25" y="-517.33" font-family="Times,serif" font-size="14.00">nemu_trap</text>
</g>
<!-- riscv64_toolchains&#45;&gt;nemu_trap -->
<g id="edge6" class="edge">
<title>riscv64_toolchains&#45;&gt;nemu_trap</title>
<path fill="none" stroke="black" d="M475.46,-575.52C437.93,-566.28 391.2,-554.42 341.66,-540.61"/>
<polygon fill="black" stroke="black" points="342.74,-537.28 332.17,-537.95 340.85,-544.02 342.74,-537.28"/>
</g>
<!-- cpio -->
<g id="node8" class="node">
<title>cpio</title>
<polygon fill="none" stroke="black" points="402.25,-540 348.25,-540 348.25,-504 402.25,-504 402.25,-540"/>
<text text-anchor="middle" x="375.25" y="-517.33" font-family="Times,serif" font-size="14.00">cpio</text>
</g>
<!-- riscv64_toolchains&#45;&gt;cpio -->
<g id="edge7" class="edge">
<title>riscv64_toolchains&#45;&gt;cpio</title>
<path fill="none" stroke="black" d="M500.67,-575.56C476.65,-566.53 446.88,-555.02 413.24,-540.73"/>
<polygon fill="black" stroke="black" points="414.64,-537.52 404.07,-536.8 411.88,-543.95 414.64,-537.52"/>
</g>
<!-- linux -->
<g id="node10" class="node">
<title>linux</title>
<polygon fill="none" stroke="black" points="698.25,-396 644.25,-396 644.25,-360 698.25,-360 698.25,-396"/>
<text text-anchor="middle" x="671.25" y="-373.32" font-family="Times,serif" font-size="14.00">linux</text>
</g>
<!-- riscv64_toolchains&#45;&gt;linux -->
<g id="edge14" class="edge">
<title>riscv64_toolchains&#45;&gt;linux</title>
<path fill="none" stroke="black" d="M611.06,-575.51C628.74,-567.53 646.16,-556.12 657.25,-540 684.42,-500.5 681.56,-442.01 676.65,-407.48"/>
<polygon fill="black" stroke="black" points="680.14,-407.15 675.11,-397.82 673.23,-408.25 680.14,-407.15"/>
</g>
<!-- dts -->
<g id="node11" class="node">
<title>dts</title>
<polygon fill="none" stroke="black" points="753.25,-468 699.25,-468 699.25,-432 753.25,-432 753.25,-468"/>
<text text-anchor="middle" x="726.25" y="-445.32" font-family="Times,serif" font-size="14.00">dts</text>
</g>
<!-- riscv64_toolchains&#45;&gt;dts -->
<g id="edge16" class="edge">
<title>riscv64_toolchains&#45;&gt;dts</title>
<path fill="none" stroke="black" d="M622.64,-577.91C646.63,-569.97 671.77,-557.99 690.25,-540 706.87,-523.83 716.06,-498.95 720.98,-479.6"/>
<polygon fill="black" stroke="black" points="724.39,-480.4 723.19,-469.87 717.56,-478.85 724.39,-480.4"/>
</g>
<!-- opensbi_bins -->
<g id="node12" class="node">
<title>opensbi_bins</title>
<polygon fill="none" stroke="black" points="786.38,-324 678.12,-324 678.12,-288 786.38,-288 786.38,-324"/>
<text text-anchor="middle" x="732.25" y="-301.32" font-family="Times,serif" font-size="14.00">opensbi_bins</text>
</g>
<!-- riscv64_toolchains&#45;&gt;opensbi_bins -->
<g id="edge17" class="edge">
<title>riscv64_toolchains&#45;&gt;opensbi_bins</title>
<path fill="none" stroke="black" d="M622.42,-580.92C653.4,-573.11 688.37,-560.43 715.25,-540 745.67,-516.88 751.35,-504.63 762.25,-468 775.88,-422.17 758.66,-367.07 745.23,-334.66"/>
<polygon fill="black" stroke="black" points="748.49,-333.37 741.3,-325.59 742.07,-336.16 748.49,-333.37"/>
</g>
<!-- gcpt_bins -->
<g id="node13" class="node">
<title>gcpt_bins</title>
<polygon fill="none" stroke="black" points="815.38,-252 731.12,-252 731.12,-216 815.38,-216 815.38,-252"/>
<text text-anchor="middle" x="773.25" y="-229.32" font-family="Times,serif" font-size="14.00">gcpt_bins</text>
</g>
<!-- riscv64_toolchains&#45;&gt;gcpt_bins -->
<g id="edge20" class="edge">
<title>riscv64_toolchains&#45;&gt;gcpt_bins</title>
<path fill="none" stroke="black" d="M622.66,-585.78C702.89,-573.4 819.25,-540.1 819.25,-451 819.25,-451 819.25,-451 819.25,-377 819.25,-335.59 801.33,-290.55 787.86,-262.55"/>
<polygon fill="black" stroke="black" points="791.04,-261.09 783.46,-253.7 784.78,-264.21 791.04,-261.09"/>
</g>
<!-- riscv64_jemalloc -->
<g id="node2" class="node">
<title>riscv64_jemalloc</title>
<polygon fill="none" stroke="black" points="134.5,-612 0,-612 0,-576 134.5,-576 134.5,-612"/>
<text text-anchor="middle" x="67.25" y="-589.33" font-family="Times,serif" font-size="14.00">riscv64_jemalloc</text>
</g>
<!-- riscv64_jemalloc&#45;&gt;spec2006 -->
<g id="edge2" class="edge">
<title>riscv64_jemalloc&#45;&gt;spec2006</title>
<path fill="none" stroke="black" d="M67.25,-575.7C67.25,-568.41 67.25,-559.73 67.25,-551.54"/>
<polygon fill="black" stroke="black" points="70.75,-551.62 67.25,-541.62 63.75,-551.62 70.75,-551.62"/>
</g>
<!-- initramfs -->
<g id="node9" class="node">
<title>initramfs</title>
<polygon fill="none" stroke="black" points="415.88,-468 334.62,-468 334.62,-432 415.88,-432 415.88,-468"/>
<text text-anchor="middle" x="375.25" y="-445.32" font-family="Times,serif" font-size="14.00">initramfs</text>
</g>
<!-- spec2006&#45;&gt;initramfs -->
<g id="edge13" class="edge">
<title>spec2006&#45;&gt;initramfs</title>
<path fill="none" stroke="black" d="M109.71,-506.43C112.59,-505.57 115.46,-504.75 118.25,-504 188.4,-485.15 270.86,-469.22 323.08,-459.89"/>
<polygon fill="black" stroke="black" points="323.67,-463.34 332.9,-458.15 322.45,-456.44 323.67,-463.34"/>
</g>
<!-- before_workload&#45;&gt;initramfs -->
<g id="edge8" class="edge">
<title>before_workload&#45;&gt;initramfs</title>
<path fill="none" stroke="black" d="M459.28,-503.52C445.14,-494.68 427.79,-483.84 412.53,-474.3"/>
<polygon fill="black" stroke="black" points="414.49,-471.39 404.15,-469.06 410.78,-477.33 414.49,-471.39"/>
</g>
<!-- busybox&#45;&gt;initramfs -->
<g id="edge9" class="edge">
<title>busybox&#45;&gt;initramfs</title>
<path fill="none" stroke="black" d="M572.37,-507.03C569.29,-505.98 566.22,-504.96 563.25,-504 517.56,-489.32 464.93,-474.67 426.99,-464.51"/>
<polygon fill="black" stroke="black" points="428.24,-461.22 417.67,-462.02 426.43,-467.98 428.24,-461.22"/>
</g>
<!-- qemu_trap&#45;&gt;initramfs -->
<g id="edge10" class="edge">
<title>qemu_trap&#45;&gt;initramfs</title>
<path fill="none" stroke="black" d="M219.85,-504.85C250.94,-494.08 291.83,-479.91 323.86,-468.81"/>
<polygon fill="black" stroke="black" points="324.63,-472.25 332.93,-465.66 322.34,-465.63 324.63,-472.25"/>
</g>
<!-- nemu_trap&#45;&gt;initramfs -->
<g id="edge11" class="edge">
<title>nemu_trap&#45;&gt;initramfs</title>
<path fill="none" stroke="black" d="M306.74,-503.7C317.9,-495.11 331.56,-484.61 343.74,-475.24"/>
<polygon fill="black" stroke="black" points="345.71,-478.14 351.5,-469.27 341.44,-472.59 345.71,-478.14"/>
</g>
<!-- cpio&#45;&gt;initramfs -->
<g id="edge12" class="edge">
<title>cpio&#45;&gt;initramfs</title>
<path fill="none" stroke="black" d="M375.25,-503.7C375.25,-496.41 375.25,-487.73 375.25,-479.54"/>
<polygon fill="black" stroke="black" points="378.75,-479.62 375.25,-469.62 371.75,-479.62 378.75,-479.62"/>
</g>
<!-- initramfs&#45;&gt;linux -->
<g id="edge15" class="edge">
<title>initramfs&#45;&gt;linux</title>
<path fill="none" stroke="black" d="M416.1,-439.34C473.4,-425.79 576.88,-401.32 632.84,-388.08"/>
<polygon fill="black" stroke="black" points="633.63,-391.49 642.55,-385.79 632.02,-384.68 633.63,-391.49"/>
</g>
<!-- linux&#45;&gt;opensbi_bins -->
<g id="edge18" class="edge">
<title>linux&#45;&gt;opensbi_bins</title>
<path fill="none" stroke="black" d="M686.33,-359.7C693.42,-351.56 702.02,-341.69 709.85,-332.7"/>
<polygon fill="black" stroke="black" points="712.42,-335.08 716.35,-325.25 707.14,-330.49 712.42,-335.08"/>
</g>
<!-- dts&#45;&gt;opensbi_bins -->
<g id="edge19" class="edge">
<title>dts&#45;&gt;opensbi_bins</title>
<path fill="none" stroke="black" d="M726.99,-431.59C728,-407.61 729.84,-364.14 731.05,-335.42"/>
<polygon fill="black" stroke="black" points="734.54,-335.76 731.46,-325.62 727.54,-335.47 734.54,-335.76"/>
</g>
<!-- opensbi_bins&#45;&gt;gcpt_bins -->
<g id="edge21" class="edge">
<title>opensbi_bins&#45;&gt;gcpt_bins</title>
<path fill="none" stroke="black" d="M742.38,-287.7C746.95,-279.9 752.45,-270.51 757.54,-261.83"/>
<polygon fill="black" stroke="black" points="760.43,-263.81 762.47,-253.41 754.39,-260.27 760.43,-263.81"/>
</g>
<!-- stage1_profilings -->
<g id="node16" class="node">
<title>stage1_profilings</title>
<polygon fill="none" stroke="black" points="895.38,-180 757.12,-180 757.12,-144 895.38,-144 895.38,-180"/>
<text text-anchor="middle" x="826.25" y="-157.32" font-family="Times,serif" font-size="14.00">stage1_profilings</text>
</g>
<!-- gcpt_bins&#45;&gt;stage1_profilings -->
<g id="edge22" class="edge">
<title>gcpt_bins&#45;&gt;stage1_profilings</title>
<path fill="none" stroke="black" d="M786.35,-215.7C792.38,-207.73 799.67,-198.1 806.36,-189.26"/>
<polygon fill="black" stroke="black" points="809.14,-191.4 812.39,-181.31 803.56,-187.17 809.14,-191.4"/>
</g>
<!-- stage3_checkpoints -->
<g id="node19" class="node">
<title>stage3_checkpoints</title>
<polygon fill="none" stroke="black" points="1051,-36 895.5,-36 895.5,0 1051,0 1051,-36"/>
<text text-anchor="middle" x="973.25" y="-13.32" font-family="Times,serif" font-size="14.00">stage3_checkpoints</text>
</g>
<!-- gcpt_bins&#45;&gt;stage3_checkpoints -->
<g id="edge27" class="edge">
<title>gcpt_bins&#45;&gt;stage3_checkpoints</title>
<path fill="none" stroke="black" d="M761.11,-215.79C749.66,-197.24 735.93,-167.26 748.25,-144 776.76,-90.17 838.69,-58.23 890.38,-40.13"/>
<polygon fill="black" stroke="black" points="891.44,-43.46 899.8,-36.95 889.21,-36.83 891.44,-43.46"/>
</g>
<!-- qemu -->
<g id="node14" class="node">
<title>qemu</title>
<polygon fill="none" stroke="black" points="893.12,-252 837.38,-252 837.38,-216 893.12,-216 893.12,-252"/>
<text text-anchor="middle" x="865.25" y="-229.32" font-family="Times,serif" font-size="14.00">qemu</text>
</g>
<!-- qemu&#45;&gt;stage1_profilings -->
<g id="edge23" class="edge">
<title>qemu&#45;&gt;stage1_profilings</title>
<path fill="none" stroke="black" d="M855.61,-215.7C851.31,-207.98 846.15,-198.71 841.36,-190.11"/>
<polygon fill="black" stroke="black" points="844.44,-188.46 836.52,-181.43 838.33,-191.87 844.44,-188.46"/>
</g>
<!-- qemu&#45;&gt;stage3_checkpoints -->
<g id="edge28" class="edge">
<title>qemu&#45;&gt;stage3_checkpoints</title>
<path fill="none" stroke="black" d="M893.41,-230.94C925.43,-226.93 976.35,-215.06 1000.25,-180 1027.29,-140.34 1011.45,-118.67 1000.25,-72 998.14,-63.2 994.31,-54.22 990.19,-46.21"/>
<polygon fill="black" stroke="black" points="993.36,-44.71 985.45,-37.66 987.23,-48.1 993.36,-44.71"/>
</g>
<!-- nemu -->
<g id="node15" class="node">
<title>nemu</title>
<polygon fill="none" stroke="black" points="1045.12,-252 989.38,-252 989.38,-216 1045.12,-216 1045.12,-252"/>
<text text-anchor="middle" x="1017.25" y="-229.32" font-family="Times,serif" font-size="14.00">nemu</text>
</g>
<!-- nemu&#45;&gt;stage1_profilings -->
<g id="edge24" class="edge">
<title>nemu&#45;&gt;stage1_profilings</title>
<path fill="none" stroke="black" d="M989.07,-222.67C961.61,-212.61 919.04,-197.01 884.32,-184.28"/>
<polygon fill="black" stroke="black" points="885.83,-181.11 875.24,-180.95 883.42,-187.68 885.83,-181.11"/>
</g>
<!-- nemu&#45;&gt;stage3_checkpoints -->
<g id="edge29" class="edge">
<title>nemu&#45;&gt;stage3_checkpoints</title>
<path fill="none" stroke="black" d="M1024.45,-215.63C1035.95,-185.09 1055.07,-120.4 1033.25,-72 1028.31,-61.05 1019.88,-51.46 1010.86,-43.55"/>
<polygon fill="black" stroke="black" points="1013.29,-41.02 1003.32,-37.45 1008.89,-46.46 1013.29,-41.02"/>
</g>
<!-- stage2_clusters -->
<g id="node18" class="node">
<title>stage2_clusters</title>
<polygon fill="none" stroke="black" points="991.12,-108 863.38,-108 863.38,-72 991.12,-72 991.12,-108"/>
<text text-anchor="middle" x="927.25" y="-85.33" font-family="Times,serif" font-size="14.00">stage2_clusters</text>
</g>
<!-- stage1_profilings&#45;&gt;stage2_clusters -->
<g id="edge25" class="edge">
<title>stage1_profilings&#45;&gt;stage2_clusters</title>
<path fill="none" stroke="black" d="M851.48,-143.52C864.1,-134.76 879.57,-124.04 893.23,-114.58"/>
<polygon fill="black" stroke="black" points="894.88,-117.7 901.1,-109.12 890.89,-111.94 894.88,-117.7"/>
</g>
<!-- simpoint -->
<g id="node17" class="node">
<title>simpoint</title>
<polygon fill="none" stroke="black" points="991.38,-180 913.12,-180 913.12,-144 991.38,-144 991.38,-180"/>
<text text-anchor="middle" x="952.25" y="-157.32" font-family="Times,serif" font-size="14.00">simpoint</text>
</g>
<!-- simpoint&#45;&gt;stage2_clusters -->
<g id="edge26" class="edge">
<title>simpoint&#45;&gt;stage2_clusters</title>
<path fill="none" stroke="black" d="M946.07,-143.7C943.38,-136.15 940.15,-127.12 937.14,-118.68"/>
<polygon fill="black" stroke="black" points="940.53,-117.77 933.87,-109.53 933.94,-120.12 940.53,-117.77"/>
</g>
<!-- stage2_clusters&#45;&gt;stage3_checkpoints -->
<g id="edge30" class="edge">
<title>stage2_clusters&#45;&gt;stage3_checkpoints</title>
<path fill="none" stroke="black" d="M938.62,-71.7C943.8,-63.81 950.05,-54.3 955.81,-45.55"/>
<polygon fill="black" stroke="black" points="958.61,-47.65 961.18,-37.37 952.76,-43.8 958.61,-47.65"/>
</g>
</g>
</svg>
