<?xml version="1.0" encoding="UTF-8" standalone="no"?>
<!DOCTYPE svg PUBLIC "-//W3C//DTD SVG 1.1//EN"
 "http://www.w3.org/Graphics/SVG/1.1/DTD/svg11.dtd">
<!-- Generated by graphviz version 2.49.3 (0)
 -->
<!-- Pages: 1 -->
<svg width="1025pt" height="697pt"
 viewBox="0.00 0.00 1025.00 697.00" xmlns="http://www.w3.org/2000/svg" xmlns:xlink="http://www.w3.org/1999/xlink">
<g id="graph0" class="graph" transform="scale(1 1) rotate(0) translate(4 693)">
<polygon fill="white" stroke="transparent" points="-4,4 -4,-693 1021,-693 1021,4 -4,4"/>
<text text-anchor="middle" x="508.5" y="-22.8" font-family="Times,serif" font-size="14.00">x86 → x86_64 not true in some cases. Like in WSL mode</text>
<text text-anchor="middle" x="508.5" y="-7.8" font-family="Times,serif" font-size="14.00">aarch64 ↔ arm32 not always true! Some arm64 cpus don’t support arm32 mod</text>
<g id="clust1" class="cluster">
<title>cluster_x86</title>
<polygon fill="none" stroke="black" points="8,-390 8,-681 78,-681 78,-390 8,-390"/>
<text text-anchor="middle" x="43" y="-665.8" font-family="Times,serif" font-size="14.00">x86</text>
</g>
<g id="clust2" class="cluster">
<title>cluster_arm32</title>
<polygon fill="none" stroke="black" points="86,-174 86,-681 355,-681 355,-174 86,-174"/>
<text text-anchor="middle" x="220.5" y="-665.8" font-family="Times,serif" font-size="14.00">arm32</text>
</g>
<!-- i386 -->
<g id="node1" class="node">
<title>i386</title>
<polygon fill="white" stroke="black" points="70,-650 16,-650 16,-614 70,-614 70,-650"/>
<text text-anchor="middle" x="43" y="-628.3" font-family="Times,serif" font-size="14.00">i386</text>
</g>
<!-- i486 -->
<g id="node2" class="node">
<title>i486</title>
<polygon fill="white" stroke="black" points="70,-578 16,-578 16,-542 70,-542 70,-578"/>
<text text-anchor="middle" x="43" y="-556.3" font-family="Times,serif" font-size="14.00">i486</text>
</g>
<!-- i386&#45;&gt;i486 -->
<g id="edge1" class="edge">
<title>i386&#45;&gt;i486</title>
<path fill="none" stroke="black" d="M43,-613.7C43,-605.98 43,-596.71 43,-588.11"/>
<polygon fill="black" stroke="black" points="46.5,-588.1 43,-578.1 39.5,-588.1 46.5,-588.1"/>
</g>
<!-- i586 -->
<g id="node3" class="node">
<title>i586</title>
<polygon fill="white" stroke="black" points="70,-506 16,-506 16,-470 70,-470 70,-506"/>
<text text-anchor="middle" x="43" y="-484.3" font-family="Times,serif" font-size="14.00">i586</text>
</g>
<!-- i486&#45;&gt;i586 -->
<g id="edge2" class="edge">
<title>i486&#45;&gt;i586</title>
<path fill="none" stroke="black" d="M43,-541.7C43,-533.98 43,-524.71 43,-516.11"/>
<polygon fill="black" stroke="black" points="46.5,-516.1 43,-506.1 39.5,-516.1 46.5,-516.1"/>
</g>
<!-- i686 -->
<g id="node4" class="node">
<title>i686</title>
<polygon fill="white" stroke="black" points="70,-434 16,-434 16,-398 70,-398 70,-434"/>
<text text-anchor="middle" x="43" y="-412.3" font-family="Times,serif" font-size="14.00">i686</text>
</g>
<!-- i586&#45;&gt;i686 -->
<g id="edge3" class="edge">
<title>i586&#45;&gt;i686</title>
<path fill="none" stroke="black" d="M43,-469.7C43,-461.98 43,-452.71 43,-444.11"/>
<polygon fill="black" stroke="black" points="46.5,-444.1 43,-434.1 39.5,-444.1 46.5,-444.1"/>
</g>
<!-- x86_64 -->
<g id="node5" class="node">
<title>x86_64</title>
<polygon fill="white" stroke="black" points="77,-362 9,-362 9,-326 77,-326 77,-362"/>
<text text-anchor="middle" x="43" y="-340.3" font-family="Times,serif" font-size="14.00">x86_64</text>
</g>
<!-- i686&#45;&gt;x86_64 -->
<g id="edge4" class="edge">
<title>i686&#45;&gt;x86_64</title>
<path fill="none" stroke="black" stroke-dasharray="5,2" d="M43,-397.7C43,-389.98 43,-380.71 43,-372.11"/>
<polygon fill="black" stroke="black" points="46.5,-372.1 43,-362.1 39.5,-372.1 46.5,-372.1"/>
</g>
<!-- arm -->
<g id="node6" class="node">
<title>arm</title>
<polygon fill="white" stroke="black" points="251,-650 197,-650 197,-614 251,-614 251,-650"/>
<text text-anchor="middle" x="224" y="-628.3" font-family="Times,serif" font-size="14.00">arm</text>
</g>
<!-- armv5tel -->
<g id="node7" class="node">
<title>armv5tel</title>
<polygon fill="white" stroke="black" points="264.5,-578 183.5,-578 183.5,-542 264.5,-542 264.5,-578"/>
<text text-anchor="middle" x="224" y="-556.3" font-family="Times,serif" font-size="14.00">armv5tel</text>
</g>
<!-- arm&#45;&gt;armv5tel -->
<g id="edge5" class="edge">
<title>arm&#45;&gt;armv5tel</title>
<path fill="none" stroke="black" d="M224,-613.7C224,-605.98 224,-596.71 224,-588.11"/>
<polygon fill="black" stroke="black" points="227.5,-588.1 224,-578.1 220.5,-588.1 227.5,-588.1"/>
</g>
<!-- armv6l -->
<g id="node8" class="node">
<title>armv6l</title>
<polygon fill="white" stroke="black" points="257.5,-506 190.5,-506 190.5,-470 257.5,-470 257.5,-506"/>
<text text-anchor="middle" x="224" y="-484.3" font-family="Times,serif" font-size="14.00">armv6l</text>
</g>
<!-- armv5tel&#45;&gt;armv6l -->
<g id="edge6" class="edge">
<title>armv5tel&#45;&gt;armv6l</title>
<path fill="none" stroke="black" d="M224,-541.7C224,-533.98 224,-524.71 224,-516.11"/>
<polygon fill="black" stroke="black" points="227.5,-516.1 224,-506.1 220.5,-516.1 227.5,-516.1"/>
</g>
<!-- armv6m -->
<g id="node9" class="node">
<title>armv6m</title>
<polygon fill="white" stroke="black" points="262,-434 186,-434 186,-398 262,-398 262,-434"/>
<text text-anchor="middle" x="224" y="-412.3" font-family="Times,serif" font-size="14.00">armv6m</text>
</g>
<!-- armv6l&#45;&gt;armv6m -->
<g id="edge7" class="edge">
<title>armv6l&#45;&gt;armv6m</title>
<path fill="none" stroke="black" d="M224,-469.7C224,-461.98 224,-452.71 224,-444.11"/>
<polygon fill="black" stroke="black" points="227.5,-444.1 224,-434.1 220.5,-444.1 227.5,-444.1"/>
</g>
<!-- armv7l -->
<g id="node10" class="node">
<title>armv7l</title>
<polygon fill="white" stroke="black" points="257.5,-362 190.5,-362 190.5,-326 257.5,-326 257.5,-362"/>
<text text-anchor="middle" x="224" y="-340.3" font-family="Times,serif" font-size="14.00">armv7l</text>
</g>
<!-- armv6m&#45;&gt;armv7l -->
<g id="edge8" class="edge">
<title>armv6m&#45;&gt;armv7l</title>
<path fill="none" stroke="black" d="M224,-397.7C224,-389.98 224,-380.71 224,-372.11"/>
<polygon fill="black" stroke="black" points="227.5,-372.1 224,-362.1 220.5,-372.1 227.5,-372.1"/>
</g>
<!-- armv7a -->
<g id="node11" class="node">
<title>armv7a</title>
<polygon fill="white" stroke="black" points="259.5,-290 188.5,-290 188.5,-254 259.5,-254 259.5,-290"/>
<text text-anchor="middle" x="224" y="-268.3" font-family="Times,serif" font-size="14.00">armv7a</text>
</g>
<!-- armv7l&#45;&gt;armv7a -->
<g id="edge9" class="edge">
<title>armv7l&#45;&gt;armv7a</title>
<path fill="none" stroke="black" d="M224,-325.7C224,-317.98 224,-308.71 224,-300.11"/>
<polygon fill="black" stroke="black" points="227.5,-300.1 224,-290.1 220.5,-300.1 227.5,-300.1"/>
</g>
<!-- armv7r -->
<g id="node12" class="node">
<title>armv7r</title>
<polygon fill="white" stroke="black" points="346.5,-290 277.5,-290 277.5,-254 346.5,-254 346.5,-290"/>
<text text-anchor="middle" x="312" y="-268.3" font-family="Times,serif" font-size="14.00">armv7r</text>
</g>
<!-- armv7l&#45;&gt;armv7r -->
<g id="edge10" class="edge">
<title>armv7l&#45;&gt;armv7r</title>
<path fill="none" stroke="black" d="M245.75,-325.7C256.84,-316.88 270.47,-306.03 282.49,-296.47"/>
<polygon fill="black" stroke="black" points="284.85,-299.07 290.5,-290.1 280.49,-293.59 284.85,-299.07"/>
</g>
<!-- armv7m -->
<g id="node13" class="node">
<title>armv7m</title>
<polygon fill="white" stroke="black" points="170,-290 94,-290 94,-254 170,-254 170,-290"/>
<text text-anchor="middle" x="132" y="-268.3" font-family="Times,serif" font-size="14.00">armv7m</text>
</g>
<!-- armv7l&#45;&gt;armv7m -->
<g id="edge11" class="edge">
<title>armv7l&#45;&gt;armv7m</title>
<path fill="none" stroke="black" d="M201.26,-325.7C189.56,-316.8 175.14,-305.82 162.49,-296.2"/>
<polygon fill="black" stroke="black" points="164.56,-293.37 154.48,-290.1 160.32,-298.94 164.56,-293.37"/>
</g>
<!-- armv8a -->
<g id="node14" class="node">
<title>armv8a</title>
<polygon fill="white" stroke="black" points="259.5,-218 188.5,-218 188.5,-182 259.5,-182 259.5,-218"/>
<text text-anchor="middle" x="224" y="-196.3" font-family="Times,serif" font-size="14.00">armv8a</text>
</g>
<!-- armv7a&#45;&gt;armv8a -->
<g id="edge12" class="edge">
<title>armv7a&#45;&gt;armv8a</title>
<path fill="none" stroke="black" d="M224,-253.7C224,-245.98 224,-236.71 224,-228.11"/>
<polygon fill="black" stroke="black" points="227.5,-228.1 224,-218.1 220.5,-228.1 227.5,-228.1"/>
</g>
<!-- armv8r -->
<g id="node15" class="node">
<title>armv8r</title>
<polygon fill="white" stroke="black" points="346.5,-218 277.5,-218 277.5,-182 346.5,-182 346.5,-218"/>
<text text-anchor="middle" x="312" y="-196.3" font-family="Times,serif" font-size="14.00">armv8r</text>
</g>
<!-- armv7a&#45;&gt;armv8r -->
<g id="edge13" class="edge">
<title>armv7a&#45;&gt;armv8r</title>
<path fill="none" stroke="black" d="M245.75,-253.7C256.84,-244.88 270.47,-234.03 282.49,-224.47"/>
<polygon fill="black" stroke="black" points="284.85,-227.07 290.5,-218.1 280.49,-221.59 284.85,-227.07"/>
</g>
<!-- armv8m -->
<g id="node16" class="node">
<title>armv8m</title>
<polygon fill="white" stroke="black" points="170,-218 94,-218 94,-182 170,-182 170,-218"/>
<text text-anchor="middle" x="132" y="-196.3" font-family="Times,serif" font-size="14.00">armv8m</text>
</g>
<!-- armv7a&#45;&gt;armv8m -->
<g id="edge14" class="edge">
<title>armv7a&#45;&gt;armv8m</title>
<path fill="none" stroke="black" d="M201.26,-253.7C189.56,-244.8 175.14,-233.82 162.49,-224.2"/>
<polygon fill="black" stroke="black" points="164.56,-221.37 154.48,-218.1 160.32,-226.94 164.56,-221.37"/>
</g>
<!-- armv7r&#45;&gt;armv8a -->
<g id="edge15" class="edge">
<title>armv7r&#45;&gt;armv8a</title>
<path fill="none" stroke="black" d="M290.25,-253.7C279.16,-244.88 265.53,-234.03 253.51,-224.47"/>
<polygon fill="black" stroke="black" points="255.51,-221.59 245.5,-218.1 251.15,-227.07 255.51,-221.59"/>
</g>
<!-- armv7r&#45;&gt;armv8r -->
<g id="edge16" class="edge">
<title>armv7r&#45;&gt;armv8r</title>
<path fill="none" stroke="black" d="M312,-253.7C312,-245.98 312,-236.71 312,-228.11"/>
<polygon fill="black" stroke="black" points="315.5,-228.1 312,-218.1 308.5,-228.1 315.5,-228.1"/>
</g>
<!-- armv7r&#45;&gt;armv8m -->
<g id="edge17" class="edge">
<title>armv7r&#45;&gt;armv8m</title>
<path fill="none" stroke="black" d="M277.29,-257.5C249.55,-246.71 210.35,-231.47 179.66,-219.54"/>
<polygon fill="black" stroke="black" points="180.61,-216.15 170.02,-215.79 178.07,-222.67 180.61,-216.15"/>
</g>
<!-- armv7m&#45;&gt;armv8a -->
<g id="edge18" class="edge">
<title>armv7m&#45;&gt;armv8a</title>
<path fill="none" stroke="black" d="M154.74,-253.7C166.44,-244.8 180.86,-233.82 193.51,-224.2"/>
<polygon fill="black" stroke="black" points="195.68,-226.94 201.52,-218.1 191.44,-221.37 195.68,-226.94"/>
</g>
<!-- armv7m&#45;&gt;armv8r -->
<g id="edge19" class="edge">
<title>armv7m&#45;&gt;armv8r</title>
<path fill="none" stroke="black" d="M170.17,-256.15C198.76,-245.04 237.93,-229.8 267.87,-218.16"/>
<polygon fill="black" stroke="black" points="269.18,-221.41 277.23,-214.52 266.65,-214.88 269.18,-221.41"/>
</g>
<!-- armv7m&#45;&gt;armv8m -->
<g id="edge20" class="edge">
<title>armv7m&#45;&gt;armv8m</title>
<path fill="none" stroke="black" d="M132,-253.7C132,-245.98 132,-236.71 132,-228.11"/>
<polygon fill="black" stroke="black" points="135.5,-228.1 132,-218.1 128.5,-228.1 135.5,-228.1"/>
</g>
<!-- aarch64 -->
<g id="node17" class="node">
<title>aarch64</title>
<polygon fill="white" stroke="black" points="261,-146 187,-146 187,-110 261,-110 261,-146"/>
<text text-anchor="middle" x="224" y="-124.3" font-family="Times,serif" font-size="14.00">aarch64</text>
</g>
<!-- armv8a&#45;&gt;aarch64 -->
<g id="edge24" class="edge">
<title>armv8a&#45;&gt;aarch64</title>
<path fill="none" stroke="black" stroke-dasharray="5,2" d="M218.08,-181.7C217.29,-173.98 217.06,-164.71 217.4,-156.11"/>
<polygon fill="black" stroke="black" points="220.9,-156.32 218.1,-146.1 213.92,-155.84 220.9,-156.32"/>
</g>
<!-- armv8r&#45;&gt;armv8a -->
<g id="edge21" class="edge">
<title>armv8r&#45;&gt;armv8a</title>
<path fill="none" stroke="black" d="M277.3,-200C274.83,-200 272.37,-200 269.9,-200"/>
<polygon fill="black" stroke="black" points="269.75,-196.5 259.75,-200 269.75,-203.5 269.75,-196.5"/>
</g>
<!-- armv8m&#45;&gt;armv8a -->
<g id="edge22" class="edge">
<title>armv8m&#45;&gt;armv8a</title>
<path fill="none" stroke="black" d="M170.09,-200C172.73,-200 175.38,-200 178.02,-200"/>
<polygon fill="black" stroke="black" points="178.2,-203.5 188.2,-200 178.2,-196.5 178.2,-203.5"/>
</g>
<!-- aarch64&#45;&gt;armv8a -->
<g id="edge23" class="edge">
<title>aarch64&#45;&gt;armv8a</title>
<path fill="none" stroke="black" stroke-dasharray="5,2" d="M229.9,-146.1C230.7,-153.79 230.94,-163.05 230.6,-171.67"/>
<polygon fill="black" stroke="black" points="227.11,-171.48 229.92,-181.7 234.09,-171.96 227.11,-171.48"/>
</g>
<!-- aarch64_be -->
<g id="node18" class="node">
<title>aarch64_be</title>
<polygon fill="white" stroke="black" points="273,-74 175,-74 175,-38 273,-38 273,-74"/>
<text text-anchor="middle" x="224" y="-52.3" font-family="Times,serif" font-size="14.00">aarch64_be</text>
</g>
<!-- aarch64&#45;&gt;aarch64_be -->
<g id="edge25" class="edge">
<title>aarch64&#45;&gt;aarch64_be</title>
<path fill="none" stroke="black" d="M218.08,-109.7C217.29,-101.98 217.06,-92.71 217.4,-84.11"/>
<polygon fill="black" stroke="black" points="220.9,-84.32 218.1,-74.1 213.92,-83.84 220.9,-84.32"/>
</g>
<!-- aarch64_be&#45;&gt;aarch64 -->
<g id="edge26" class="edge">
<title>aarch64_be&#45;&gt;aarch64</title>
<path fill="none" stroke="black" d="M229.9,-74.1C230.7,-81.79 230.94,-91.05 230.6,-99.67"/>
<polygon fill="black" stroke="black" points="227.11,-99.48 229.92,-109.7 234.09,-99.96 227.11,-99.48"/>
</g>
<!-- powerpc -->
<g id="node19" class="node">
<title>powerpc</title>
<polygon fill="white" stroke="black" points="566.5,-650 489.5,-650 489.5,-614 566.5,-614 566.5,-650"/>
<text text-anchor="middle" x="528" y="-628.3" font-family="Times,serif" font-size="14.00">powerpc</text>
</g>
<!-- powerpc64 -->
<g id="node20" class="node">
<title>powerpc64</title>
<polygon fill="white" stroke="black" points="464.5,-578 369.5,-578 369.5,-542 464.5,-542 464.5,-578"/>
<text text-anchor="middle" x="417" y="-556.3" font-family="Times,serif" font-size="14.00">powerpc64</text>
</g>
<!-- powerpc&#45;&gt;powerpc64 -->
<g id="edge27" class="edge">
<title>powerpc&#45;&gt;powerpc64</title>
<path fill="none" stroke="black" d="M500.85,-613.88C486.47,-604.81 468.62,-593.55 453.09,-583.76"/>
<polygon fill="black" stroke="black" points="454.58,-580.56 444.26,-578.19 450.85,-586.48 454.58,-580.56"/>
</g>
<!-- powerpcle -->
<g id="node21" class="node">
<title>powerpcle</title>
<polygon fill="white" stroke="black" points="573,-578 483,-578 483,-542 573,-542 573,-578"/>
<text text-anchor="middle" x="528" y="-556.3" font-family="Times,serif" font-size="14.00">powerpcle</text>
</g>
<!-- powerpc&#45;&gt;powerpcle -->
<g id="edge29" class="edge">
<title>powerpc&#45;&gt;powerpcle</title>
<path fill="none" stroke="black" d="M522.08,-613.7C521.29,-605.98 521.06,-596.71 521.4,-588.11"/>
<polygon fill="black" stroke="black" points="524.9,-588.32 522.1,-578.1 517.92,-587.84 524.9,-588.32"/>
</g>
<!-- powerpc64le -->
<g id="node22" class="node">
<title>powerpc64le</title>
<polygon fill="white" stroke="black" points="471,-506 363,-506 363,-470 471,-470 471,-506"/>
<text text-anchor="middle" x="417" y="-484.3" font-family="Times,serif" font-size="14.00">powerpc64le</text>
</g>
<!-- powerpc64&#45;&gt;powerpc64le -->
<g id="edge31" class="edge">
<title>powerpc64&#45;&gt;powerpc64le</title>
<path fill="none" stroke="black" d="M411.08,-541.7C410.29,-533.98 410.06,-524.71 410.4,-516.11"/>
<polygon fill="black" stroke="black" points="413.9,-516.32 411.1,-506.1 406.92,-515.84 413.9,-516.32"/>
</g>
<!-- powerpcle&#45;&gt;powerpc -->
<g id="edge28" class="edge">
<title>powerpcle&#45;&gt;powerpc</title>
<path fill="none" stroke="black" d="M533.9,-578.1C534.7,-585.79 534.94,-595.05 534.6,-603.67"/>
<polygon fill="black" stroke="black" points="531.11,-603.48 533.92,-613.7 538.09,-603.96 531.11,-603.48"/>
</g>
<!-- powerpc64le&#45;&gt;powerpc64 -->
<g id="edge30" class="edge">
<title>powerpc64le&#45;&gt;powerpc64</title>
<path fill="none" stroke="black" d="M422.9,-506.1C423.7,-513.79 423.94,-523.05 423.6,-531.67"/>
<polygon fill="black" stroke="black" points="420.11,-531.48 422.92,-541.7 427.09,-531.96 420.11,-531.48"/>
</g>
<!-- mips -->
<g id="node23" class="node">
<title>mips</title>
<polygon fill="white" stroke="black" points="738,-650 684,-650 684,-614 738,-614 738,-650"/>
<text text-anchor="middle" x="711" y="-628.3" font-family="Times,serif" font-size="14.00">mips</text>
</g>
<!-- mips64 -->
<g id="node24" class="node">
<title>mips64</title>
<polygon fill="white" stroke="black" points="660.5,-578 591.5,-578 591.5,-542 660.5,-542 660.5,-578"/>
<text text-anchor="middle" x="626" y="-556.3" font-family="Times,serif" font-size="14.00">mips64</text>
</g>
<!-- mips&#45;&gt;mips64 -->
<g id="edge32" class="edge">
<title>mips&#45;&gt;mips64</title>
<path fill="none" stroke="black" d="M689.99,-613.7C679.28,-604.88 666.11,-594.03 654.5,-584.47"/>
<polygon fill="black" stroke="black" points="656.71,-581.76 646.77,-578.1 652.26,-587.16 656.71,-581.76"/>
</g>
<!-- mipsel -->
<g id="node25" class="node">
<title>mipsel</title>
<polygon fill="white" stroke="black" points="743,-578 679,-578 679,-542 743,-542 743,-578"/>
<text text-anchor="middle" x="711" y="-556.3" font-family="Times,serif" font-size="14.00">mipsel</text>
</g>
<!-- mips&#45;&gt;mipsel -->
<g id="edge33" class="edge">
<title>mips&#45;&gt;mipsel</title>
<path fill="none" stroke="black" d="M705.08,-613.7C704.29,-605.98 704.06,-596.71 704.4,-588.11"/>
<polygon fill="black" stroke="black" points="707.9,-588.32 705.1,-578.1 700.92,-587.84 707.9,-588.32"/>
</g>
<!-- mips64el -->
<g id="node26" class="node">
<title>mips64el</title>
<polygon fill="white" stroke="black" points="667,-506 585,-506 585,-470 667,-470 667,-506"/>
<text text-anchor="middle" x="626" y="-484.3" font-family="Times,serif" font-size="14.00">mips64el</text>
</g>
<!-- mips64&#45;&gt;mips64el -->
<g id="edge35" class="edge">
<title>mips64&#45;&gt;mips64el</title>
<path fill="none" stroke="black" d="M620.08,-541.7C619.29,-533.98 619.06,-524.71 619.4,-516.11"/>
<polygon fill="black" stroke="black" points="622.9,-516.32 620.1,-506.1 615.92,-515.84 622.9,-516.32"/>
</g>
<!-- mipsel&#45;&gt;mips -->
<g id="edge34" class="edge">
<title>mipsel&#45;&gt;mips</title>
<path fill="none" stroke="black" d="M716.9,-578.1C717.7,-585.79 717.94,-595.05 717.6,-603.67"/>
<polygon fill="black" stroke="black" points="714.11,-603.48 716.92,-613.7 721.09,-603.96 714.11,-603.48"/>
</g>
<!-- mips64el&#45;&gt;mips64 -->
<g id="edge36" class="edge">
<title>mips64el&#45;&gt;mips64</title>
<path fill="none" stroke="black" d="M631.9,-506.1C632.7,-513.79 632.94,-523.05 632.6,-531.67"/>
<polygon fill="black" stroke="black" points="629.11,-531.48 631.92,-541.7 636.09,-531.96 629.11,-531.48"/>
</g>
<!-- riscv32 -->
<g id="node27" class="node">
<title>riscv32</title>
<polygon fill="white" stroke="black" points="830.5,-650 761.5,-650 761.5,-614 830.5,-614 830.5,-650"/>
<text text-anchor="middle" x="796" y="-628.3" font-family="Times,serif" font-size="14.00">riscv32</text>
</g>
<!-- riscv64 -->
<g id="node28" class="node">
<title>riscv64</title>
<polygon fill="white" stroke="black" points="830.5,-578 761.5,-578 761.5,-542 830.5,-542 830.5,-578"/>
<text text-anchor="middle" x="796" y="-556.3" font-family="Times,serif" font-size="14.00">riscv64</text>
</g>
<!-- riscv32&#45;&gt;riscv64 -->
<g id="edge37" class="edge">
<title>riscv32&#45;&gt;riscv64</title>
<path fill="none" stroke="black" d="M796,-613.7C796,-605.98 796,-596.71 796,-588.11"/>
<polygon fill="black" stroke="black" points="799.5,-588.1 796,-578.1 792.5,-588.1 799.5,-588.1"/>
</g>
<!-- sparc -->
<g id="node29" class="node">
<title>sparc</title>
<polygon fill="white" stroke="black" points="914,-650 858,-650 858,-614 914,-614 914,-650"/>
<text text-anchor="middle" x="886" y="-628.3" font-family="Times,serif" font-size="14.00">sparc</text>
</g>
<!-- sparc64 -->
<g id="node30" class="node">
<title>sparc64</title>
<polygon fill="white" stroke="black" points="923,-578 849,-578 849,-542 923,-542 923,-578"/>
<text text-anchor="middle" x="886" y="-556.3" font-family="Times,serif" font-size="14.00">sparc64</text>
</g>
<!-- sparc&#45;&gt;sparc64 -->
<g id="edge38" class="edge">
<title>sparc&#45;&gt;sparc64</title>
<path fill="none" stroke="black" d="M886,-613.7C886,-605.98 886,-596.71 886,-588.11"/>
<polygon fill="black" stroke="black" points="889.5,-588.1 886,-578.1 882.5,-588.1 889.5,-588.1"/>
</g>
<!-- wasm32 -->
<g id="node31" class="node">
<title>wasm32</title>
<polygon fill="white" stroke="black" points="1017,-650 941,-650 941,-614 1017,-614 1017,-650"/>
<text text-anchor="middle" x="979" y="-628.3" font-family="Times,serif" font-size="14.00">wasm32</text>
</g>
<!-- wasm64 -->
<g id="node32" class="node">
<title>wasm64</title>
<polygon fill="white" stroke="black" points="1017,-578 941,-578 941,-542 1017,-542 1017,-578"/>
<text text-anchor="middle" x="979" y="-556.3" font-family="Times,serif" font-size="14.00">wasm64</text>
</g>
<!-- wasm32&#45;&gt;wasm64 -->
<g id="edge39" class="edge">
<title>wasm32&#45;&gt;wasm64</title>
<path fill="none" stroke="black" d="M979,-613.7C979,-605.98 979,-596.71 979,-588.11"/>
<polygon fill="black" stroke="black" points="982.5,-588.1 979,-578.1 975.5,-588.1 982.5,-588.1"/>
</g>
</g>
</svg>
